<svg width="1672" height="1099" viewBox="0 0 1672 1099" fill="none" xmlns="http://www.w3.org/2000/svg">
<mask id="mask0_116_84" style="mask-type:luminance" maskUnits="userSpaceOnUse" x="0" y="0" width="1672" height="1099">
<path d="M1671.49 0H0V1098.37H1671.49V0Z" fill="white"/>
</mask>
<g mask="url(#mask0_116_84)">
<path d="M1232.85 580.049H444.782C421.777 580.049 403.233 561.374 403.233 538.518V45.1515C403.233 22.1562 421.917 3.61914 444.782 3.61914H1232.85C1255.84 3.61914 1274.39 22.2956 1274.39 45.1515V538.518C1274.39 561.374 1255.72 580.049 1232.85 580.049Z" fill="#A6C4FF"/>
<path d="M1274.39 95.1921H403.092V45.0193C403.092 22.024 421.776 3.48828 444.643 3.48828H1232.71C1255.7 3.48828 1274.25 22.1634 1274.25 45.0193V95.1921H1274.39Z" fill="white"/>
<path d="M1274.39 381.173V538.38C1274.39 561.377 1255.72 579.913 1232.85 579.913H444.782C421.777 579.913 403.233 561.238 403.233 538.38V444.028" stroke="#738FB0" stroke-width="7.04082" stroke-miterlimit="10" stroke-linecap="round" stroke-linejoin="round"/>
<path d="M727.547 3.48828H1232.71C1255.72 3.48828 1274.25 22.1634 1274.25 45.0193V344.664" stroke="#738FB0" stroke-width="7.04082" stroke-miterlimit="10" stroke-linecap="round" stroke-linejoin="round"/>
<path d="M1149.74 580.06V95.1953H527.882V653.925V878.448H900.301H1024.95H1087.27C1121.71 878.448 1149.6 850.575 1149.6 816.151L1149.74 580.06Z" fill="white"/>
<path d="M403.092 135.191V45.0193C403.092 22.0239 421.776 3.48828 444.643 3.48828H562.879" stroke="#738FB0" stroke-width="7.04082" stroke-miterlimit="10" stroke-linecap="round" stroke-linejoin="round"/>
<path d="M403.092 381.177V211.565" stroke="#738FB0" stroke-width="7.04082" stroke-miterlimit="10" stroke-linecap="round" stroke-linejoin="round"/>
<path d="M627.158 3.48828H694.503" stroke="#738FB0" stroke-width="7.04082" stroke-miterlimit="10" stroke-linecap="round" stroke-linejoin="round"/>
<path d="M825.983 95.1953H403.092" stroke="#738FB0" stroke-width="7.04082" stroke-miterlimit="10" stroke-linecap="round" stroke-linejoin="round"/>
<path d="M1274.39 95.1953H907.272" stroke="#738FB0" stroke-width="7.04082" stroke-miterlimit="10" stroke-linecap="round" stroke-linejoin="round"/>
<path d="M456.356 67.0405C466.136 67.0405 474.064 59.1153 474.064 49.3398C474.064 39.5644 466.136 31.6406 456.356 31.6406C446.576 31.6406 438.648 39.5644 438.648 49.3398C438.648 59.1153 446.576 67.0405 456.356 67.0405Z" fill="#738FB0"/>
<path d="M519.239 67.0405C529.019 67.0405 536.947 59.1153 536.947 49.3398C536.947 39.5644 529.019 31.6406 519.239 31.6406C509.459 31.6406 501.531 39.5644 501.531 49.3398C501.531 59.1153 509.459 67.0405 519.239 67.0405Z" fill="#738FB0"/>
<path d="M582.122 67.0405C591.902 67.0405 599.83 59.1153 599.83 49.3398C599.83 39.5644 591.902 31.6406 582.122 31.6406C572.342 31.6406 564.414 39.5644 564.414 49.3398C564.414 59.1153 572.342 67.0405 582.122 67.0405Z" fill="#738FB0"/>
<path d="M808.555 477.478H1005.99" stroke="#738FB0" stroke-width="7.04082" stroke-miterlimit="10" stroke-linecap="round" stroke-linejoin="round"/>
<path d="M808.555 530.162H894.026" stroke="#738FB0" stroke-width="7.04082" stroke-miterlimit="10" stroke-linecap="round" stroke-linejoin="round"/>
<path d="M808.555 503.814H1005.99" stroke="#738FB0" stroke-width="7.04082" stroke-miterlimit="10" stroke-linecap="round" stroke-linejoin="round"/>
<path d="M1086.58 878.439H900.301V716.215C900.301 681.789 928.186 653.916 962.62 653.916C979.912 653.916 995.388 660.885 1006.68 672.173C1017.98 683.462 1024.95 699.072 1024.95 716.215V816.003C1024.95 850.287 1052.42 878.021 1086.58 878.439Z" fill="#738FB0" stroke="#738FB0" stroke-width="7.04082" stroke-miterlimit="10" stroke-linecap="round" stroke-linejoin="round"/>
<path d="M1137.33 853.362C1136.77 854.198 1136.08 854.895 1135.51 855.732C1134.26 857.265 1132.87 858.797 1131.47 860.191C1130.36 861.307 1129.39 862.282 1128.14 863.257C1127.71 863.536 1127.43 863.954 1127.01 864.233C1126.32 864.79 1125.47 865.487 1124.64 866.045C1123.81 866.603 1122.97 867.16 1122.28 867.717C1121.02 868.553 1119.76 869.389 1118.5 870.087C1117.81 870.505 1117.11 870.923 1116.28 871.341C1113.49 872.875 1110.56 874.128 1107.49 875.104C1105.13 875.94 1102.62 876.637 1100.1 877.055C1099.69 877.195 1099.27 877.195 1098.99 877.334C1098.3 877.474 1097.59 877.613 1096.9 877.753C1093.83 878.169 1090.76 878.448 1087.69 878.448H1086.86C1052.84 878.03 1025.37 850.296 1025.37 816.151V716.363C1025.37 699.081 1018.4 683.61 1007.1 672.321C995.811 661.033 980.194 654.064 963.043 654.064C928.605 654.064 900.719 681.939 900.719 716.363V878.588H527.882V95.1953" stroke="#738FB0" stroke-width="7.04082" stroke-miterlimit="10" stroke-linecap="round" stroke-linejoin="round"/>
<path d="M1149.74 95.1953V762.076" stroke="#738FB0" stroke-width="7.04082" stroke-miterlimit="10" stroke-linecap="round" stroke-linejoin="round"/>
<path d="M1024.95 816.143V716.216" stroke="#738FB0" stroke-width="7.04082" stroke-miterlimit="10" stroke-linecap="round" stroke-linejoin="round"/>
<path d="M939.202 653.916C935.019 657.4 931.115 661.303 927.908 665.763C912.292 677.051 902.113 695.448 902.113 716.215V1032.58C902.113 1067.01 874.227 1094.88 839.788 1094.88C822.498 1094.88 807.022 1087.9 795.727 1076.63C784.434 1065.33 777.462 1049.73 777.462 1032.58V991.601H280.254V716.215C280.254 681.789 308.141 653.916 342.579 653.916H939.202Z" fill="white"/>
<path d="M563.02 703.4H825.986" stroke="#738FB0" stroke-width="7.04082" stroke-miterlimit="10" stroke-linecap="round" stroke-linejoin="round"/>
<path d="M808.555 219.091H1005.99" stroke="#738FB0" stroke-width="7.04082" stroke-miterlimit="10" stroke-linecap="round" stroke-linejoin="round"/>
<path d="M808.555 271.765H894.026" stroke="#738FB0" stroke-width="7.04082" stroke-miterlimit="10" stroke-linecap="round" stroke-linejoin="round"/>
<path d="M808.555 245.428H1005.99" stroke="#738FB0" stroke-width="7.04082" stroke-miterlimit="10" stroke-linecap="round" stroke-linejoin="round"/>
<path d="M664.942 766.394H825.983" stroke="#738FB0" stroke-width="7.04082" stroke-miterlimit="10" stroke-linecap="round" stroke-linejoin="round"/>
<path d="M410.342 766.394H625.902" stroke="#738FB0" stroke-width="7.04082" stroke-miterlimit="10" stroke-linecap="round" stroke-linejoin="round"/>
<path d="M534.436 829.529H591.045H738.701" stroke="#738FB0" stroke-width="7.04082" stroke-miterlimit="10" stroke-linecap="round" stroke-linejoin="round"/>
<path d="M351.642 829.529H476.711" stroke="#738FB0" stroke-width="7.04082" stroke-miterlimit="10" stroke-linecap="round" stroke-linejoin="round"/>
<path d="M718.903 892.522H825.985" stroke="#738FB0" stroke-width="7.04082" stroke-miterlimit="10" stroke-linecap="round" stroke-linejoin="round"/>
<path d="M351.642 892.522H684.88" stroke="#738FB0" stroke-width="7.04082" stroke-miterlimit="10" stroke-linecap="round" stroke-linejoin="round"/>
<path d="M351.642 955.517H620.603" stroke="#738FB0" stroke-width="7.04082" stroke-miterlimit="10" stroke-linecap="round" stroke-linejoin="round"/>
<path d="M900.301 1018.92V716.215C900.301 702.555 904.624 690.013 912.152 679.699C915.36 675.24 919.124 671.338 923.307 667.853C934.043 659.073 947.707 653.916 962.62 653.916H796.704" stroke="#738FB0" stroke-width="7.04082" stroke-miterlimit="10" stroke-linecap="round" stroke-linejoin="round"/>
<path d="M278.442 747.153V716.215C278.442 681.789 306.329 653.916 340.767 653.916H745.394" stroke="#738FB0" stroke-width="7.04082" stroke-miterlimit="10" stroke-linecap="round" stroke-linejoin="round"/>
<path d="M884.546 1074.12C873.112 1086.95 856.519 1095.03 837.975 1095.03C820.686 1095.03 805.21 1088.06 793.915 1076.77C782.622 1065.49 775.65 1049.87 775.65 1032.73V991.755H278.442V829.529" stroke="#738FB0" stroke-width="7.04082" stroke-miterlimit="10" stroke-linecap="round" stroke-linejoin="round"/>
<path d="M837.977 1094.89H215.7C181.26 1094.89 153.374 1067.01 153.374 1032.59V991.615H775.652V1032.59C775.652 1049.87 782.623 1065.33 793.917 1076.63C805.21 1087.92 820.687 1094.89 837.977 1094.89Z" fill="white"/>
<path d="M837.977 1094.89H215.7C181.26 1094.89 153.374 1067.01 153.374 1032.59V991.615H775.652V1032.59C775.652 1049.87 782.623 1065.33 793.917 1076.63C805.21 1087.92 820.687 1094.89 837.977 1094.89Z" fill="#738FB0" stroke="#738FB0" stroke-width="7.04082" stroke-miterlimit="10" stroke-linecap="round" stroke-linejoin="round"/>
<path d="M1011.71 618.801H1011.57" stroke="#738FB0" stroke-width="7.04082" stroke-miterlimit="10" stroke-linecap="round" stroke-linejoin="round"/>
<path d="M1429.58 608.763C1417.58 599.705 1398.63 602.213 1385.66 615.314C1372.55 628.414 1370.04 647.368 1379.1 659.215C1274.12 739.492 1123.25 731.548 1027.33 635.662C1021.89 630.227 1016.72 624.512 1011.85 618.798C1116.84 707.576 1274.39 702.419 1373.52 603.328C1472.66 504.237 1477.83 346.749 1389 241.665C1394.86 246.543 1400.43 251.7 1405.87 257.135C1501.95 353.021 1509.89 503.819 1429.58 608.763Z" fill="#738FB0" stroke="#738FB0" stroke-width="7.04082" stroke-miterlimit="10" stroke-linecap="round" stroke-linejoin="round"/>
<path d="M1389.28 241.533C1384.41 235.679 1379.24 230.104 1373.66 224.668C1269.09 120.142 1099.41 120.142 994.839 224.668C890.263 329.195 890.263 498.807 994.839 603.333C1000.27 608.769 1005.99 613.926 1011.71 618.803C1116.98 707.582 1274.39 702.286 1373.52 603.194C1472.8 504.242 1477.97 346.756 1389.28 241.533Z" fill="#E0EBFF"/>
<path d="M916.616 427.583C919.822 491.555 945.896 554.41 994.698 603.328C1000.13 608.763 1005.85 613.92 1011.57 618.798C1116.84 707.577 1274.39 702.42 1373.52 603.328C1472.66 504.237 1477.83 346.751 1389.14 241.665C1384.27 235.813 1379.1 230.238 1373.66 224.802C1297.26 148.428 1186.14 127.801 1091.04 163.061" stroke="#738FB0" stroke-width="7.04082" stroke-miterlimit="10" stroke-linecap="round" stroke-linejoin="round"/>
<path d="M1040.98 556.916C961.93 477.894 961.93 349.954 1040.98 270.93C1120.04 191.909 1248.04 191.909 1327.1 270.93C1332.53 276.366 1337.7 282.08 1342.43 288.073C1262.95 224.8 1146.95 229.818 1073.47 303.404C999.993 376.851 994.839 492.806 1058.14 572.246C1052.28 567.508 1046.56 562.491 1040.98 556.916Z" fill="#738FB0" stroke="#738FB0" stroke-width="7.04082" stroke-miterlimit="10" stroke-linecap="round" stroke-linejoin="round"/>
<path d="M1327.24 556.92C1253.76 630.367 1137.75 635.524 1058.28 572.251C994.98 492.811 999.993 376.856 1073.61 303.409C1147.09 229.96 1263.09 224.804 1342.57 288.078C1405.87 367.518 1400.71 483.473 1327.24 556.92Z" fill="white"/>
<path d="M1282.75 590.652C1212.2 630.093 1122.97 623.961 1058.14 572.394C994.839 492.953 999.852 376.998 1073.47 303.551C1146.95 230.104 1262.95 224.948 1342.43 288.221C1384.27 340.624 1396.25 408.914 1378.41 470.376" stroke="#738FB0" stroke-width="7.04082" stroke-miterlimit="10" stroke-linecap="round" stroke-linejoin="round"/>
<path d="M1343.42 538.666C1338.39 544.938 1333.09 551.071 1327.24 556.924C1322.22 561.942 1317.06 566.541 1311.76 570.861" stroke="#738FB0" stroke-width="7.04082" stroke-miterlimit="10" stroke-linecap="round" stroke-linejoin="round"/>
<path d="M1661.17 809.737C1648.76 800.26 1622.54 809.319 1600.94 830.782C1579.47 852.244 1570.4 878.445 1579.89 890.989L1381.2 661.866C1380.35 661.031 1379.66 660.194 1378.96 659.358C1369.9 647.371 1372.41 628.418 1385.52 615.457C1398.63 602.355 1417.58 599.708 1429.44 608.906C1430.41 609.603 1431.26 610.3 1431.95 611.135L1661.17 809.737Z" fill="#E0EBFF"/>
<path d="M1553.53 716.221L1661.31 809.597C1648.9 800.121 1622.68 809.179 1601.08 830.642C1579.61 852.104 1570.54 878.306 1580.02 890.85L1381.2 661.866C1380.35 661.031 1379.66 660.194 1378.96 659.358C1369.9 647.371 1372.41 628.418 1385.52 615.457C1398.63 602.355 1417.58 599.708 1429.44 608.906C1430.41 609.603 1431.26 610.3 1431.95 611.135L1505.14 674.549" stroke="#738FB0" stroke-width="7.04082" stroke-miterlimit="10" stroke-linecap="round" stroke-linejoin="round"/>
<path d="M1662.84 811.132L1661.17 809.738" stroke="#738FB0" stroke-width="7.04082" stroke-miterlimit="10" stroke-linecap="round" stroke-linejoin="round"/>
<path d="M1581.42 892.522L1580.02 890.851" stroke="#738FB0" stroke-width="7.04082" stroke-miterlimit="10" stroke-linecap="round" stroke-linejoin="round"/>
<path d="M1643.19 872.871C1620.74 895.31 1592.98 904.09 1581.42 892.522C1580.86 891.966 1580.44 891.408 1580.03 890.85C1570.54 878.446 1579.61 852.244 1601.08 830.643C1622.56 809.18 1648.76 800.121 1661.31 809.598C1661.87 810.016 1662.42 810.574 1662.98 810.992C1674.56 822.698 1665.77 850.433 1643.19 872.871Z" fill="#738FB0" stroke="#738FB0" stroke-width="7.04082" stroke-miterlimit="10" stroke-linecap="round" stroke-linejoin="round"/>
<path d="M1174.42 381.173C1174.42 401.38 1157.97 417.826 1137.75 417.826C1117.53 417.826 1101.09 401.38 1101.09 381.173" stroke="#738FB0" stroke-width="7.04082" stroke-miterlimit="10" stroke-linecap="round" stroke-linejoin="round"/>
<path d="M1314.83 381.173C1314.83 401.38 1298.38 417.826 1278.16 417.826C1257.94 417.826 1241.49 401.38 1241.49 381.173" stroke="#738FB0" stroke-width="7.04082" stroke-miterlimit="10" stroke-linecap="round" stroke-linejoin="round"/>
<path d="M1208.02 504.381C1219.12 504.381 1228.1 495.396 1228.1 484.312C1228.1 473.229 1219.12 464.243 1208.02 464.243C1196.94 464.243 1187.94 473.229 1187.94 484.312C1187.94 495.396 1196.94 504.381 1208.02 504.381Z" fill="#738FB0" stroke="#738FB0" stroke-width="7.04082" stroke-miterlimit="10" stroke-linecap="round" stroke-linejoin="round"/>
<path d="M561.485 321.381C543.081 318.453 531.369 302.566 531.369 285.842C531.369 278.733 533.46 271.487 538.2 265.075C557.024 239.013 535.412 207.933 509.199 207.933C502.227 207.933 495.117 210.025 488.285 215.042C466.672 230.651 436.277 217.968 431.954 191.768C428.748 171.699 412.573 161.664 396.539 161.664C380.505 161.664 364.471 171.699 361.123 191.768C358.196 210.164 342.3 221.872 325.709 221.872C318.598 221.872 311.348 219.78 304.794 215.042C278.72 196.227 247.628 217.829 247.628 244.03C247.628 250.999 249.719 258.106 254.739 264.936C259.34 271.347 261.57 278.594 261.57 285.702C261.57 302.288 249.859 318.174 231.454 321.241C211.376 324.446 201.338 340.614 201.338 356.641C201.338 372.669 211.376 388.695 231.454 392.041C249.859 394.967 261.57 410.855 261.57 427.58C261.57 434.687 259.479 441.935 254.739 448.346C235.915 474.407 257.528 505.487 283.741 505.487C290.573 505.487 297.822 503.397 304.655 498.38C326.267 482.77 356.662 495.452 360.984 521.654C367.538 561.792 425.262 561.792 431.815 521.654C434.744 503.258 450.639 491.55 467.23 491.55C474.341 491.55 481.592 493.641 488.145 498.38C514.219 517.194 545.311 495.592 545.311 469.39C545.311 462.422 543.22 455.314 538.2 448.484C533.599 442.074 531.369 434.827 531.369 427.72C531.369 411.134 543.081 395.246 561.485 392.18C581.563 388.974 591.602 372.808 591.602 356.781C591.602 340.753 581.563 324.586 561.485 321.381ZM396.399 418.799C362.101 418.799 334.353 391.065 334.353 356.781C334.353 322.496 362.101 294.761 396.399 294.761C430.699 294.761 458.446 322.496 458.446 356.781C458.446 391.065 430.699 418.799 396.399 418.799Z" fill="#E0EBFF"/>
<path d="M530.951 285.981C530.951 278.873 533.042 271.626 537.783 265.215C556.606 239.152 534.995 208.073 508.782 208.073C501.81 208.073 494.699 210.164 487.867 215.181C466.255 230.791 435.86 218.108 431.537 191.907C428.052 171.699 412.017 161.664 395.983 161.664C379.948 161.664 363.913 171.699 360.567 191.768C357.64 210.164 341.744 221.872 325.152 221.872C318.041 221.872 310.79 219.78 304.238 215.042C287.924 203.334 269.659 207.377 258.365 218.386" stroke="#738FB0" stroke-width="7.04082" stroke-miterlimit="10" stroke-linecap="round" stroke-linejoin="round"/>
<path d="M338.118 494.067C349.413 498.387 358.476 508.282 360.567 521.802C367.121 561.94 424.844 561.94 431.398 521.802C434.325 503.404 450.221 491.698 466.813 491.698C473.924 491.698 481.174 493.788 487.727 498.527C513.801 517.341 544.894 495.74 544.894 469.538C544.894 462.569 542.802 455.462 537.783 448.633C533.181 442.221 530.951 434.975 530.951 427.866C530.951 411.282 542.662 395.394 561.067 392.327" stroke="#738FB0" stroke-width="7.04082" stroke-miterlimit="10" stroke-linecap="round" stroke-linejoin="round"/>
<path d="M254.18 265.076C258.782 271.488 261.013 278.734 261.013 285.842C261.013 302.428 249.3 318.316 230.895 321.382C210.817 324.587 200.779 340.754 200.779 356.781C200.779 372.809 210.817 388.837 230.895 392.181C249.3 395.107 261.013 410.996 261.013 427.72C261.013 434.827 258.922 442.075 254.18 448.487C237.727 471.343 252.229 497.962 273.7 504.233" stroke="#738FB0" stroke-width="7.04082" stroke-miterlimit="10" stroke-linecap="round" stroke-linejoin="round"/>
<path d="M447.431 391.491C436.277 407.937 417.454 418.807 395.983 418.807C361.683 418.807 333.936 391.073 333.936 356.788C333.936 322.504 361.683 294.769 395.983 294.769C421.358 294.769 443.11 309.96 452.73 331.702" stroke="#738FB0" stroke-width="7.04082" stroke-miterlimit="10" stroke-linecap="round" stroke-linejoin="round"/>
<path d="M377.578 609.459C376.881 609.459 376.184 609.459 375.347 609.459C356.244 610.574 340.49 595.383 340.49 576.567C340.49 575.871 340.49 575.313 340.49 574.616C341.744 553.014 324.455 539.635 307.165 539.635C295.872 539.635 284.577 545.21 278.164 557.892C269.38 575.453 247.071 581.445 230.618 570.575C206.637 554.826 179.308 574.338 179.308 598.03C179.308 604.023 180.981 610.156 185.024 616.147C188.65 621.722 190.462 627.994 190.462 634.127C190.462 646.113 183.909 657.819 172.337 663.673C140.964 679.422 152.817 726.111 186.836 726.111C187.533 726.111 188.232 726.111 189.068 726.111C208.031 724.995 223.926 740.187 223.926 759.001C223.926 759.698 223.926 760.256 223.926 760.953C222.67 782.554 239.959 795.935 257.249 795.935C268.544 795.935 279.837 790.36 286.251 777.676C292.107 766.11 303.82 759.559 315.81 759.559C321.945 759.559 328.219 761.371 333.797 764.994C357.779 780.743 385.107 761.232 385.107 737.538C385.107 731.545 383.433 725.414 379.39 719.421C375.765 713.846 373.952 707.574 373.952 701.441C373.952 689.456 380.505 677.749 392.078 671.895C423.45 656.148 411.738 609.459 377.578 609.459ZM282.207 708.271C259.899 708.271 241.773 690.153 241.773 667.854C241.773 645.555 259.899 627.437 282.207 627.437C304.517 627.437 322.642 645.555 322.642 667.854C322.642 690.153 304.517 708.271 282.207 708.271Z" fill="#E0EBFF"/>
<path d="M372.417 762.072C379.946 755.939 384.966 746.602 384.966 736.428C384.966 730.435 383.292 724.303 379.249 718.31C375.625 712.735 373.811 706.463 373.811 700.331C373.811 688.346 380.365 676.638 391.937 670.785C423.309 655.036 411.458 608.348 377.437 608.348C376.74 608.348 376.043 608.348 375.206 608.348C356.103 609.463 340.349 594.272 340.349 575.456C340.349 574.759 340.349 574.203 340.349 573.506C341.604 551.903 324.314 538.524 307.025 538.524C295.731 538.524 284.436 544.099 278.024 556.781C271.191 570.439 256.132 577.129 242.051 574.343" stroke="#738FB0" stroke-width="7.04082" stroke-miterlimit="10" stroke-linecap="round" stroke-linejoin="round"/>
<path d="M223.787 758.031C223.787 758.728 223.787 759.286 223.787 759.983C222.532 781.586 239.821 794.965 257.109 794.965C268.404 794.965 279.698 789.39 286.112 776.708C291.967 765.14 303.68 758.589 315.671 758.589C319.436 758.589 323.2 759.286 326.825 760.541" stroke="#738FB0" stroke-width="7.04082" stroke-miterlimit="10" stroke-linecap="round" stroke-linejoin="round"/>
<path d="M193.249 570.438C184.883 576.571 179.307 586.466 179.307 597.057C179.307 603.05 180.98 609.183 185.023 615.176C188.649 620.751 190.461 627.021 190.461 633.154C190.461 645.14 183.907 656.848 172.335 662.7" stroke="#738FB0" stroke-width="7.04082" stroke-miterlimit="10" stroke-linecap="round" stroke-linejoin="round"/>
<path d="M258.225 634.13C264.916 629.252 273.143 626.324 282.066 626.324C304.376 626.324 322.502 644.443 322.502 666.741C322.502 689.041 304.376 707.158 282.066 707.158C259.758 707.158 241.632 689.041 241.632 666.741" stroke="#738FB0" stroke-width="7.04082" stroke-miterlimit="10" stroke-linecap="round" stroke-linejoin="round"/>
<path d="M71.3881 424.792L102.482 460.61L8.78394 484.442L96.904 517.194L51.0316 567.646L132.598 544.51L134.41 570.433L165.922 553.847" stroke="#738FB0" stroke-width="7.04082" stroke-miterlimit="10" stroke-linecap="round" stroke-linejoin="round"/>
<path d="M174.147 391.766L141.381 354.276L129.251 402.497L3.48511 345.913L52.285 402.637" stroke="#738FB0" stroke-width="7.04082" stroke-miterlimit="10" stroke-linecap="round" stroke-linejoin="round"/>
<path d="M1436.97 202.08L1500.96 138.11" stroke="#738FB0" stroke-width="7.04082" stroke-miterlimit="10" stroke-linecap="round" stroke-linejoin="round"/>
<path d="M1461.08 245.282L1503.89 233.019" stroke="#738FB0" stroke-width="7.04082" stroke-miterlimit="10" stroke-linecap="round" stroke-linejoin="round"/>
<path d="M1393.74 177.969L1406.01 135.184" stroke="#738FB0" stroke-width="7.04082" stroke-miterlimit="10" stroke-linecap="round" stroke-linejoin="round"/>
<path d="M1247.9 800.397H964.296V984.505H1247.9V800.397Z" fill="#A6C4FF"/>
<path d="M1187.81 799.98H964.296V984.087H1034.85" stroke="#738FB0" stroke-width="7.04082" stroke-miterlimit="10" stroke-linecap="round" stroke-linejoin="round"/>
<path d="M1248.04 890.848V799.98" stroke="#738FB0" stroke-width="7.04082" stroke-miterlimit="10" stroke-linecap="round" stroke-linejoin="round"/>
<path d="M1034.84 936.423L1101.92 890.849L1034.84 845.415" stroke="#738FB0" stroke-width="7.04082" stroke-miterlimit="10" stroke-linecap="round" stroke-linejoin="round"/>
<path d="M1110.84 938.651H1177.49" stroke="#738FB0" stroke-width="7.04082" stroke-miterlimit="10" stroke-linecap="round" stroke-linejoin="round"/>
<path d="M677.35 331.695C725.017 331.695 763.658 293.07 763.658 245.425C763.658 197.78 725.017 159.155 677.35 159.155C629.684 159.155 591.044 197.78 591.044 245.425C591.044 293.07 629.684 331.695 677.35 331.695Z" fill="#A6C4FF"/>
<path d="M699.801 245.425L725.874 219.364C727.965 217.273 727.965 213.65 725.874 211.558L712.35 198.04C710.258 195.949 706.633 195.949 704.542 198.04L678.468 224.102L652.395 198.04C650.304 195.949 646.678 195.949 644.587 198.04L631.063 211.558C628.97 213.65 628.97 217.273 631.063 219.364L657.135 245.425L627.158 275.389L644.587 292.811C646.678 294.902 650.304 294.902 652.395 292.811L678.468 266.749L704.542 292.811C706.633 294.902 710.258 294.902 712.35 292.811L725.874 279.292C727.965 277.201 727.965 273.578 725.874 271.487L699.801 245.425Z" fill="white"/>
<path d="M677.35 590.092C725.017 590.092 763.658 551.468 763.658 503.822C763.658 456.177 725.017 417.553 677.35 417.553C629.684 417.553 591.044 456.177 591.044 503.822C591.044 551.468 629.684 590.092 677.35 590.092Z" fill="#A6C4FF"/>
<path d="M699.801 503.823L725.874 477.762C727.965 475.671 727.965 472.048 725.874 469.957L712.35 456.438C710.258 454.347 706.633 454.347 704.542 456.438L678.468 482.501L652.395 456.438C650.304 454.347 646.678 454.347 644.587 456.438L631.063 469.957C628.97 472.048 628.97 475.671 631.063 477.762L657.135 503.823L627.158 533.787L644.587 551.209C646.678 553.3 650.304 553.3 652.395 551.209L678.468 525.147L704.542 551.209C706.633 553.3 710.258 553.3 712.35 551.209L725.874 537.691C727.965 535.6 727.965 531.977 725.874 529.885L699.801 503.823Z" fill="white"/>
</g>
</svg>
