<svg width="463" height="332" viewBox="0 0 463 332" fill="none" xmlns="http://www.w3.org/2000/svg">
<path d="M354.788 295.471C359.658 298.281 369.218 297.311 376.138 293.311L416.058 270.121C422.988 266.121 424.648 260.601 419.778 257.781C414.908 254.961 405.358 255.961 398.428 259.961L358.528 283.171C351.598 287.141 349.928 292.661 354.788 295.471Z" fill="#EBEBEB"/>
<path d="M114.368 316.861L73.7483 293.411L114.368 269.961V316.861Z" fill="#EBEBEB"/>
<path d="M229.178 330.891L163.708 293.071L229.188 255.321L229.178 330.891Z" fill="#EBEBEB"/>
<path d="M59.4183 262.032C59.5383 252.532 52.8983 232.762 43.1883 220.312C33.4783 207.862 18.0583 198.652 7.05834 202.282C-3.24166 205.672 -2.29166 219.132 10.0583 228.202C22.4083 237.272 40.9583 248.692 46.2483 264.202L57.4983 283.202L59.4183 262.032Z" fill="#C4B5FD"/>
<path opacity="0.1" d="M59.4183 262.032C59.5383 252.532 52.8983 232.762 43.1883 220.312C33.4783 207.862 18.0583 198.652 7.05834 202.282C-3.24166 205.672 -2.29166 219.132 10.0583 228.202C22.4083 237.272 40.9583 248.692 46.2483 264.202L57.4983 283.202L59.4183 262.032Z" fill="black"/>
<path d="M59.9682 275.042C59.8165 275.029 59.6733 274.966 59.5612 274.862C59.449 274.759 59.3742 274.622 59.3482 274.472C53.3482 241.962 27.4482 215.282 11.8182 209.272C11.7238 209.246 11.6358 209.201 11.5599 209.139C11.4841 209.077 11.422 209 11.3778 208.913C11.3335 208.825 11.3081 208.73 11.3031 208.632C11.2982 208.534 11.3138 208.437 11.3489 208.345C11.384 208.254 11.438 208.171 11.5072 208.102C11.5764 208.032 11.6593 207.978 11.7507 207.943C11.842 207.908 11.9397 207.892 12.0375 207.897C12.1353 207.902 12.2309 207.928 12.3182 207.972C28.2482 214.102 54.6482 241.222 60.7082 274.222C60.7256 274.311 60.7252 274.403 60.7069 274.492C60.6886 274.581 60.6529 274.666 60.6018 274.741C60.5507 274.817 60.4852 274.881 60.409 274.931C60.3329 274.981 60.2477 275.015 60.1582 275.032L59.9682 275.042Z" fill="white"/>
<path d="M54.8783 295.741C53.4183 290.381 46.9983 281.491 36.5383 274.081C24.9583 265.891 10.2383 262.011 6.90827 255.701C2.90827 248.121 9.33827 241.081 21.3083 242.701C33.2783 244.321 54.1583 260.961 57.2383 285.621L54.8783 295.741Z" fill="#C4B5FD"/>
<path d="M57.2683 290.161C57.1348 290.15 57.0073 290.101 56.9009 290.019C56.7945 289.938 56.7138 289.827 56.6683 289.701C47.0583 261.791 25.9783 251.781 16.1783 250.391C15.9967 250.366 15.8324 250.27 15.7218 250.123C15.6112 249.977 15.5632 249.793 15.5883 249.611C15.6135 249.43 15.7099 249.265 15.8562 249.155C16.0024 249.044 16.1867 248.996 16.3683 249.021C27.2083 250.561 48.1783 260.761 57.9883 289.241C58.0464 289.416 58.0339 289.607 57.9536 289.773C57.8734 289.939 57.7316 290.068 57.5583 290.131C57.4646 290.16 57.366 290.171 57.2683 290.161Z" fill="white"/>
<path d="M413.988 234.961C413.988 234.961 415.318 214.961 427.118 200.061C438.918 185.161 438.198 179.061 430.058 176.061C421.918 173.061 403.058 191.011 407.218 214.961C411.378 238.911 413.988 234.961 413.988 234.961Z" fill="#C4B5FD"/>
<path opacity="0.1" d="M413.988 234.961C413.988 234.961 415.318 214.961 427.118 200.061C438.918 185.161 438.198 179.061 430.058 176.061C421.918 173.061 403.058 191.011 407.218 214.961C411.378 238.911 413.988 234.961 413.988 234.961Z" fill="black"/>
<path d="M410.378 223.542C410.26 223.542 410.146 223.498 410.059 223.418C409.972 223.339 409.918 223.229 409.908 223.112C408.538 201.052 424.108 182.952 429.908 178.852C429.957 178.816 430.013 178.79 430.072 178.776C430.131 178.762 430.192 178.76 430.252 178.77C430.311 178.78 430.368 178.803 430.419 178.836C430.47 178.868 430.514 178.911 430.548 178.962C430.619 179.063 430.647 179.188 430.626 179.309C430.606 179.431 430.538 179.539 430.438 179.612C424.718 183.612 409.438 201.382 410.798 223.052C410.804 223.173 410.762 223.292 410.682 223.383C410.602 223.475 410.489 223.531 410.368 223.542H410.378Z" fill="white"/>
<path d="M410.778 251.521C416.092 253.258 421.536 254.569 427.058 255.441C436.198 256.881 440.238 252.511 440.238 252.511C440.238 252.511 436.638 243.941 431.448 241.511C437.064 242.773 442.426 244.974 447.308 248.021C447.308 248.021 452.888 248.111 455.108 239.591C455.108 239.591 451.808 234.461 440.708 231.691C440.708 231.691 447.458 229.991 457.188 232.471C457.918 232.761 461.028 221.751 461.968 216.671C462.908 211.591 460.868 211.671 456.908 210.581C452.948 209.491 439.818 206.581 437.338 208.751C434.858 210.921 433.598 218.381 433.598 218.381C432.616 215.327 432.488 212.063 433.228 208.941C433.228 208.941 429.668 207.551 424.128 209.161C419.608 210.471 419.388 213.551 419.588 217.031C419.856 220.054 420.529 223.028 421.588 225.871C421.588 225.871 418.058 221.351 417.948 211.541C417.948 211.541 408.688 216.141 407.108 225.341C406.188 230.331 404.968 244.961 410.778 251.521Z" fill="#C4B5FD"/>
<path d="M412.518 249.741C412.616 249.74 412.711 249.713 412.794 249.662C412.877 249.611 412.944 249.538 412.988 249.451C420.358 234.121 447.788 216.311 457.608 214.401C457.675 214.389 457.738 214.364 457.795 214.327C457.852 214.29 457.901 214.243 457.939 214.187C457.977 214.131 458.004 214.068 458.017 214.002C458.031 213.936 458.031 213.867 458.018 213.801C457.989 213.667 457.91 213.549 457.796 213.473C457.682 213.397 457.543 213.367 457.408 213.391C447.408 215.341 419.548 233.391 412.058 249.001C412 249.124 411.992 249.266 412.037 249.395C412.082 249.524 412.176 249.631 412.298 249.691C412.368 249.722 412.442 249.738 412.518 249.741Z" fill="white"/>
<path d="M55.8383 302.821C54.7083 302.821 54.0283 301.891 54.0283 300.321V132.111L260.058 13.1807V180.711C259.987 182.109 259.588 183.472 258.893 184.688C258.198 185.904 257.227 186.939 256.058 187.711L57.4783 302.311C56.9856 302.621 56.4202 302.797 55.8383 302.821Z" fill="#FAFAFA"/>
<path d="M259.438 14.1911V180.711C259.355 182.008 258.973 183.269 258.322 184.395C257.672 185.52 256.77 186.481 255.688 187.201L57.1882 301.801C56.7841 302.063 56.3188 302.214 55.8382 302.241C54.7282 302.241 54.6082 300.891 54.6082 300.321V132.451L259.438 14.1911ZM260.608 12.1911L53.4382 131.771V300.321C53.4382 302.321 54.4382 303.411 55.8382 303.411C56.522 303.386 57.1874 303.183 57.7682 302.821L256.278 188.211C257.538 187.389 258.587 186.281 259.339 184.978C260.091 183.675 260.526 182.213 260.608 180.711V12.1611V12.1911Z" fill="#E0E0E0"/>
<path d="M53.4482 131.771V159.921L260.608 40.3111V12.1611L53.4482 131.771Z" fill="#C4B5FD"/>
<path d="M69.6882 133.271V137.271C69.6882 138.091 70.2782 138.431 70.9882 138.021L134.678 101.251V94.251L70.9882 131.021C70.612 131.27 70.2988 131.602 70.0731 131.993C69.8475 132.383 69.7158 132.821 69.6882 133.271Z" fill="#FAFAFA"/>
<path d="M141.508 90.3111C142.228 89.8911 142.808 90.2311 142.808 91.0611V95.0611C142.782 95.5116 142.651 95.9497 142.425 96.3404C142.2 96.7312 141.886 97.0636 141.508 97.3111L134.678 101.251V94.2511L141.508 90.3111Z" fill="#455A64"/>
<path d="M53.4382 122.701C53.5203 121.198 53.9551 119.737 54.7074 118.434C55.4597 117.131 56.5082 116.023 57.7682 115.201L256.278 0.590826C258.668 -0.789174 260.608 0.330826 260.608 3.09083V12.1608L53.4382 131.771V122.701Z" fill="#455A64"/>
<path d="M237.578 16.101C236.993 16.488 236.506 17.0074 236.159 17.6172C235.812 18.227 235.613 18.91 235.578 19.611C235.578 20.911 236.488 21.431 237.578 20.791C238.164 20.4019 238.65 19.8806 238.997 19.2692C239.345 18.6578 239.544 17.9733 239.578 17.271C239.618 15.961 238.708 15.451 237.578 16.101Z" fill="#C4B5FD"/>
<path d="M244.058 12.3804C243.473 12.7674 242.986 13.2868 242.639 13.8966C242.292 14.5064 242.093 15.1894 242.058 15.8904C242.058 17.1904 242.968 17.7104 244.058 17.0704C244.643 16.6801 245.128 16.1586 245.475 15.5474C245.823 14.9363 246.022 14.2524 246.058 13.5504C246.058 12.2504 245.138 11.7304 244.058 12.3804Z" fill="#C4B5FD"/>
<path d="M250.448 8.66069C249.863 9.04767 249.377 9.56707 249.029 10.1769C248.682 10.7867 248.483 11.4697 248.448 12.1707C248.448 13.4707 249.358 13.9907 250.448 13.3507C251.033 12.9604 251.518 12.4389 251.865 11.8277C252.213 11.2166 252.412 10.5327 252.448 9.83069C252.478 8.53069 251.568 8.01069 250.448 8.66069Z" fill="#C4B5FD"/>
<g opacity="0.1">
<path d="M195.608 58.6306C194.317 59.4756 193.242 60.6132 192.473 61.951C191.703 63.2889 191.26 64.7893 191.178 66.3306C191.178 69.1606 193.178 70.3306 195.608 68.8906C196.901 68.0489 197.978 66.9136 198.749 65.5773C199.521 64.241 199.966 62.7414 200.048 61.2006C200.058 58.3706 198.058 57.2206 195.608 58.6306Z" fill="black"/>
<path d="M175.308 70.3607C174.015 71.2024 172.939 72.3376 172.167 73.6739C171.396 75.0102 170.951 76.5098 170.868 78.0507C170.868 80.8807 172.868 82.0507 175.308 80.6207C176.6 79.7756 177.674 78.6381 178.444 77.3002C179.213 75.9624 179.657 74.462 179.738 72.9207C179.738 70.0907 177.758 68.9607 175.308 70.3607Z" fill="black"/>
<path d="M215.918 46.9601C214.627 47.803 213.553 48.9387 212.783 50.2749C212.013 51.6111 211.57 53.1102 211.488 54.6501C211.488 57.4801 213.488 58.6501 215.918 57.2101C217.212 56.3689 218.289 55.2339 219.06 53.8974C219.832 52.561 220.277 51.0611 220.358 49.5201C220.358 46.6401 218.378 45.4901 215.918 46.9601Z" fill="black"/>
<path d="M236.238 35.1605C234.945 36.0022 233.869 37.1374 233.097 38.4737C232.326 39.81 231.881 41.3096 231.798 42.8505C231.798 45.6805 233.798 46.8505 236.238 45.4105C237.531 44.5687 238.608 43.4335 239.379 42.0972C240.151 40.7609 240.596 39.2613 240.678 37.7205C240.678 34.8905 238.688 33.7405 236.238 35.1605Z" fill="black"/>
</g>
<path d="M74.0583 162.111L122.268 134.271C124.658 132.891 126.598 134.011 126.598 136.771V183.061C126.516 184.563 126.081 186.025 125.329 187.328C124.577 188.631 123.528 189.738 122.268 190.561L74.0583 218.391C71.6683 219.771 69.7283 218.651 69.7283 215.891V169.611C69.8104 168.108 70.2452 166.646 70.9974 165.343C71.7497 164.04 72.7983 162.933 74.0583 162.111Z" fill="#E0E0E0"/>
<path d="M143.058 122.241L244.058 63.9613C246.448 62.5713 248.388 63.6913 248.388 66.4613V112.741C248.306 114.244 247.871 115.705 247.119 117.008C246.367 118.311 245.318 119.419 244.058 120.241L143.058 178.521C140.668 179.901 138.728 178.781 138.728 176.021V129.741C138.81 128.239 139.245 126.777 139.997 125.474C140.75 124.171 141.798 123.064 143.058 122.241Z" fill="#E0E0E0"/>
<path d="M74.0583 232.46L150.698 188.21C153.098 186.83 155.038 187.81 155.038 190.4C154.931 191.855 154.484 193.263 153.732 194.512C152.979 195.761 151.944 196.816 150.708 197.59L74.0583 241.84C71.6683 243.22 69.7283 242.24 69.7283 239.65C69.8351 238.196 70.2828 236.788 71.035 235.538C71.7872 234.289 72.8229 233.235 74.0583 232.46Z" fill="#E0E0E0"/>
<path d="M74.0583 248.881L150.698 204.631C153.098 203.251 155.038 204.231 155.038 206.821C154.931 208.275 154.484 209.684 153.732 210.933C152.979 212.182 151.944 213.237 150.708 214.011L74.0583 258.261C71.6683 259.641 69.7283 258.661 69.7283 256.071C69.8351 254.617 70.2828 253.208 71.035 251.959C71.7872 250.71 72.8229 249.656 74.0583 248.881Z" fill="#E0E0E0"/>
<path d="M74.0583 265.29L150.698 221.04C153.098 219.66 155.038 220.64 155.038 223.23C154.931 224.685 154.484 226.093 153.732 227.342C152.979 228.591 151.944 229.646 150.708 230.42L74.0583 274.67C71.6683 276.05 69.7283 275.07 69.7283 272.48C69.8351 271.026 70.2828 269.618 71.035 268.369C71.7872 267.12 72.8229 266.065 74.0583 265.29Z" fill="#E0E0E0"/>
<path d="M110.308 209.631C110.36 208.73 110.621 207.853 111.073 207.072C111.525 206.29 112.153 205.625 112.908 205.131L245.818 128.401C246.624 127.992 247.515 127.778 248.418 127.778C249.322 127.778 250.213 127.992 251.018 128.401L253.948 130.091C254.703 130.585 255.331 131.25 255.781 132.031C256.231 132.813 256.491 133.69 256.538 134.591V236.471C256.489 237.371 256.229 238.248 255.779 239.029C255.329 239.811 254.702 240.476 253.948 240.971L121.058 317.701C120.253 318.11 119.362 318.324 118.458 318.324C117.555 318.324 116.664 318.11 115.858 317.701L112.928 316.011C112.173 315.517 111.544 314.853 111.092 314.071C110.64 313.289 110.379 312.412 110.328 311.511L110.308 209.631Z" fill="#C4B5FD"/>
<path opacity="0.4" d="M111.058 207.071L118.438 211.331L255.768 132.031C255.329 131.239 254.7 130.569 253.938 130.081L251.058 128.401C250.256 127.992 249.369 127.778 248.468 127.778C247.568 127.778 246.68 127.992 245.878 128.401L112.908 205.131C112.138 205.611 111.501 206.278 111.058 207.071Z" fill="white"/>
<path opacity="0.1" d="M110.308 209.631V311.511C110.359 312.413 110.62 313.29 111.072 314.071C111.524 314.853 112.153 315.517 112.908 316.011L115.838 317.701C116.064 317.832 116.301 317.939 116.548 318.021C116.896 318.138 117.255 318.222 117.618 318.271C118.302 318.355 118.994 318.328 119.668 318.191C119.841 318.16 120.012 318.116 120.178 318.061L120.488 317.941C120.291 318.026 120.078 318.07 119.863 318.07C119.648 318.07 119.436 318.026 119.238 317.941C118.962 317.757 118.741 317.5 118.602 317.198C118.462 316.896 118.409 316.561 118.448 316.231V214.331C118.422 213.868 118.537 213.408 118.778 213.011C119.019 212.615 119.375 212.301 119.798 212.111L118.448 211.331L111.058 207.071C110.595 207.847 110.337 208.728 110.308 209.631Z" fill="black"/>
<path opacity="0.2" d="M118.448 211.331L179.998 234.331C182.127 235.124 184.462 235.169 186.619 234.459C188.777 233.748 190.628 232.324 191.868 230.421L201.748 215.281L256.268 131.751L203.718 215.851L256.538 236.521C256.494 237.439 256.216 238.331 255.728 239.111L203.578 216.111L192.058 234.461C190.782 236.5 188.814 238.01 186.514 238.715C184.215 239.421 181.738 239.274 179.538 238.301L171.358 234.691L119.238 317.961C118.962 317.777 118.741 317.519 118.602 317.218C118.462 316.916 118.409 316.581 118.448 316.251V314.561L171.128 234.631L118.448 211.331Z" fill="black"/>
<path d="M228.108 94.3712V328.271C228.108 331.031 230.048 332.151 232.438 330.771L337.518 270.101C338.778 269.279 339.827 268.171 340.579 266.868C341.332 265.565 341.766 264.104 341.848 262.601V28.7012C341.848 25.9412 339.908 24.8212 337.518 26.2012L232.438 86.8712C231.177 87.6923 230.128 88.7995 229.375 90.1028C228.623 91.406 228.189 92.8685 228.108 94.3712Z" fill="#FAFAFA" stroke="#E0E0E0" stroke-width="1.16981" stroke-miterlimit="10"/>
<path d="M234.198 98.7208C234.232 98.3504 234.352 97.993 234.548 97.6771C234.744 97.3611 235.012 97.0953 235.328 96.9008L247.328 89.9908C247.948 89.6308 248.449 89.8708 248.449 90.5208C248.417 90.8904 248.299 91.2475 248.104 91.5635C247.91 91.8796 247.644 92.1457 247.328 92.3408L235.328 99.2508C234.708 99.6108 234.198 99.3708 234.198 98.7208Z" fill="#455A64"/>
<path d="M234.198 103.381C234.231 103.011 234.351 102.653 234.547 102.337C234.743 102.021 235.011 101.755 235.328 101.561L247.328 94.6512C247.948 94.2912 248.449 94.5313 248.449 95.1713C248.418 95.5427 248.301 95.9018 248.106 96.2196C247.912 96.5375 247.645 96.8052 247.328 97.0012L235.328 103.901C234.708 104.261 234.198 104.031 234.198 103.381Z" fill="#455A64"/>
<path d="M234.198 108.042C234.231 107.671 234.351 107.313 234.547 106.997C234.743 106.681 235.011 106.415 235.328 106.222L247.328 99.3115C247.948 98.9515 248.449 99.1815 248.449 99.8315C248.418 100.202 248.301 100.559 248.106 100.876C247.912 101.192 247.645 101.458 247.328 101.652L235.328 108.562C234.708 108.962 234.198 108.692 234.198 108.042Z" fill="#455A64"/>
<path d="M333.728 48.0609V46.1909C333.729 46.1682 333.724 46.1457 333.713 46.1255C333.703 46.1054 333.687 46.0884 333.668 46.0763C333.649 46.0642 333.627 46.0573 333.604 46.0563C333.581 46.0554 333.558 46.0604 333.538 46.0709L332.098 46.7209C332.076 46.7321 332.051 46.7382 332.025 46.7385C332 46.7389 331.975 46.7336 331.952 46.7231C331.929 46.7126 331.909 46.697 331.893 46.6776C331.876 46.6582 331.865 46.6354 331.858 46.6109C331.782 46.3616 331.675 46.1231 331.538 45.9009C331.511 45.8466 331.497 45.7867 331.497 45.7259C331.497 45.6652 331.511 45.6052 331.538 45.5509L332.538 43.6109C332.563 43.5618 332.567 43.5049 332.551 43.4525C332.534 43.4002 332.497 43.3565 332.448 43.3309L331.448 42.7309C331.401 42.7069 331.347 42.7007 331.295 42.7136C331.244 42.7265 331.199 42.7575 331.168 42.8009L329.968 44.6009C329.933 44.6492 329.886 44.6881 329.832 44.7142C329.778 44.7403 329.718 44.7529 329.658 44.7509C329.396 44.7488 329.135 44.7756 328.878 44.8309C328.854 44.8385 328.828 44.8405 328.803 44.8367C328.777 44.8329 328.753 44.8235 328.732 44.809C328.711 44.7946 328.693 44.7756 328.681 44.7534C328.668 44.7312 328.66 44.7065 328.658 44.6809L328.498 43.1109C328.498 43.0009 328.398 42.9509 328.308 43.0109L326.688 43.9409C326.637 43.9745 326.594 44.0187 326.561 44.0704C326.528 44.1221 326.507 44.1803 326.498 44.2409L326.338 46.0409C326.317 46.1687 326.258 46.2871 326.168 46.3809C325.844 46.6913 325.543 47.0256 325.268 47.3809C325.23 47.4258 325.179 47.4583 325.122 47.4743C325.065 47.4903 325.005 47.4891 324.948 47.4709L323.948 47.1109C323.895 47.0939 323.837 47.0956 323.784 47.1155C323.732 47.1355 323.687 47.1726 323.658 47.2209L322.468 49.2809C322.444 49.3299 322.436 49.3852 322.445 49.439C322.454 49.4928 322.48 49.5425 322.518 49.5809L323.358 50.3009C323.399 50.342 323.429 50.3935 323.443 50.4498C323.457 50.5062 323.455 50.5654 323.438 50.6209C323.284 51.0322 323.157 51.4531 323.058 51.8809C323.025 52.0022 322.955 52.1103 322.858 52.1909L321.378 53.1909C321.329 53.2291 321.288 53.2774 321.259 53.3326C321.23 53.3878 321.212 53.4486 321.208 53.5109V55.3709C321.203 55.3949 321.206 55.4197 321.215 55.4422C321.225 55.4647 321.241 55.4837 321.262 55.4968C321.282 55.5098 321.307 55.5162 321.331 55.5152C321.355 55.5142 321.379 55.5057 321.398 55.4909L322.838 54.8409C322.862 54.8316 322.887 54.8273 322.912 54.8284C322.938 54.8295 322.962 54.8359 322.985 54.8473C323.008 54.8586 323.028 54.8746 323.044 54.8942C323.06 54.9137 323.072 54.9365 323.078 54.9609C323.154 55.2102 323.262 55.4488 323.398 55.6709C323.426 55.7252 323.44 55.7852 323.44 55.8459C323.44 55.9067 323.426 55.9666 323.398 56.0209L322.398 57.9509C322.376 58.002 322.372 58.0595 322.389 58.1129C322.405 58.1663 322.441 58.2118 322.488 58.2409L323.488 58.8409C323.536 58.865 323.59 58.8711 323.641 58.8583C323.693 58.8454 323.738 58.8144 323.768 58.7709L324.968 56.9709C325.004 56.9227 325.051 56.8838 325.105 56.8577C325.159 56.8315 325.218 56.8189 325.278 56.8209C325.54 56.8231 325.802 56.7962 326.058 56.7409C326.083 56.7333 326.109 56.7314 326.134 56.7351C326.159 56.7389 326.183 56.7484 326.205 56.7628C326.226 56.7772 326.243 56.7962 326.256 56.8184C326.269 56.8406 326.276 56.8654 326.278 56.8909L326.438 58.4609C326.438 58.5709 326.528 58.6209 326.628 58.5609L328.248 57.6309C328.299 57.5949 328.343 57.5488 328.375 57.4955C328.408 57.4422 328.429 57.3828 328.438 57.3209L328.598 55.5209C328.618 55.3955 328.678 55.2798 328.768 55.1909C329.093 54.8805 329.394 54.5463 329.668 54.1909C329.707 54.1461 329.758 54.1136 329.815 54.0976C329.872 54.0815 329.932 54.0827 329.988 54.1009L330.988 54.4609C331.042 54.4779 331.1 54.4763 331.152 54.4563C331.205 54.4364 331.249 54.3992 331.278 54.3509L332.468 52.2909C332.494 52.2398 332.502 52.1818 332.491 52.1258C332.48 52.0698 332.451 52.0189 332.408 51.9809L331.578 51.2709C331.537 51.2299 331.508 51.1784 331.494 51.122C331.48 51.0657 331.481 51.0065 331.498 50.9509C331.652 50.5397 331.779 50.1188 331.878 49.6909C331.907 49.5673 331.977 49.4576 332.078 49.3809L333.558 48.3809C333.607 48.3419 333.647 48.2934 333.676 48.2384C333.705 48.1834 333.723 48.123 333.728 48.0609ZM327.398 53.9609C325.888 54.8409 324.668 54.1309 324.668 52.3909C324.715 51.441 324.987 50.5159 325.462 49.6917C325.936 48.8676 326.6 48.1681 327.398 47.6509C328.908 46.7809 330.128 47.4909 330.128 49.2309C330.08 50.1791 329.807 51.1023 329.333 51.9245C328.858 52.7468 328.195 53.4447 327.398 53.9609Z" fill="#37474F"/>
<path d="M284.978 94.1613C297.258 87.0713 307.208 92.8213 307.208 107.001C307.208 121.181 297.258 138.411 284.978 145.501C272.698 152.591 262.748 146.841 262.748 132.671C262.748 118.501 272.698 101.251 284.978 94.1613Z" fill="#455A64"/>
<path d="M284.828 105.321C288.828 103.021 292.038 104.881 292.038 109.481C291.901 111.981 291.177 114.414 289.924 116.582C288.672 118.751 286.926 120.593 284.828 121.961C280.828 124.261 277.608 122.401 277.608 117.801C277.746 115.3 278.471 112.866 279.726 110.697C280.98 108.529 282.728 106.687 284.828 105.321Z" fill="#C4B5FD"/>
<path d="M299.059 129.841C299.059 122.291 293.748 119.221 287.208 123.001L283.059 125.361C276.519 129.141 271.208 138.361 271.208 145.891V147.961C272.443 148.356 273.732 148.555 275.029 148.551C278.537 148.432 281.953 147.398 284.939 145.551C290.65 142.042 295.481 137.27 299.059 131.601V129.841Z" fill="#C4B5FD"/>
<path d="M264.918 166.591L305.058 143.421C306.248 142.731 307.218 143.221 307.218 144.521C307.164 145.247 306.941 145.949 306.566 146.573C306.19 147.197 305.674 147.723 305.058 148.111L264.928 171.281C263.728 171.981 262.758 171.481 262.758 170.191C262.81 169.463 263.033 168.758 263.408 168.133C263.783 167.507 264.301 166.979 264.918 166.591Z" fill="#C4B5FD"/>
<path d="M260.608 183.171L309.348 154.961C310.548 154.271 311.518 154.761 311.518 156.061C311.464 156.788 311.239 157.492 310.862 158.115C310.485 158.739 309.967 159.265 309.348 159.651L260.608 187.861C259.408 188.551 258.438 188.061 258.438 186.761C258.493 186.034 258.718 185.33 259.095 184.707C259.472 184.083 259.99 183.557 260.608 183.171Z" fill="#455A64"/>
<path d="M310.648 177.702L324.298 169.822C325.018 169.412 325.598 169.602 325.598 170.252C325.544 170.65 325.399 171.031 325.173 171.364C324.948 171.697 324.648 171.973 324.298 172.172L310.648 180.052C309.938 180.462 309.348 180.272 309.348 179.632C309.403 179.232 309.549 178.85 309.774 178.516C310 178.181 310.299 177.903 310.648 177.702Z" fill="#37474F"/>
<path d="M242.458 212.391L262.508 200.821C263.698 200.131 264.668 200.691 264.668 202.071V215.831C264.627 216.581 264.41 217.312 264.035 217.963C263.66 218.614 263.137 219.169 262.508 219.581L242.458 231.151C241.268 231.841 240.298 231.281 240.298 229.901V216.141C240.34 215.39 240.557 214.66 240.932 214.009C241.307 213.357 241.83 212.803 242.458 212.391Z" fill="#C4B5FD"/>
<path d="M245.658 214.311L259.308 206.431C260.028 206.021 260.608 206.211 260.608 206.851C260.556 207.252 260.411 207.634 260.185 207.969C259.96 208.304 259.66 208.582 259.308 208.781L245.658 216.661C244.938 217.071 244.358 216.881 244.358 216.241C244.411 215.841 244.556 215.458 244.781 215.123C245.007 214.789 245.307 214.511 245.658 214.311Z" fill="#FAFAFA"/>
<path d="M244.358 221.251V225.251C244.358 226.081 244.938 226.411 245.658 226.001L259.308 218.121C259.687 217.875 260.002 217.543 260.228 217.152C260.454 216.761 260.584 216.322 260.608 215.871V211.871C260.608 211.041 260.028 210.711 259.308 211.121L245.658 218.961C245.276 219.213 244.958 219.551 244.732 219.95C244.506 220.348 244.378 220.794 244.358 221.251Z" fill="#FAFAFA"/>
<path d="M274.958 193.631L294.958 182.061C296.158 181.371 297.128 181.931 297.128 183.311V197.071C297.088 197.823 296.87 198.554 296.493 199.206C296.116 199.858 295.59 200.411 294.958 200.821L274.958 212.391C273.758 213.081 272.798 212.521 272.798 211.141V197.381C272.837 196.63 273.053 195.899 273.429 195.247C273.804 194.595 274.328 194.042 274.958 193.631Z" fill="#C4B5FD"/>
<path d="M278.158 195.552L291.808 187.672C292.518 187.262 293.098 187.452 293.098 188.092C293.045 188.491 292.902 188.872 292.678 189.207C292.454 189.541 292.157 189.82 291.808 190.022L278.158 197.902C277.438 198.312 276.858 198.122 276.858 197.472C276.912 197.073 277.058 196.692 277.283 196.359C277.509 196.026 277.808 195.75 278.158 195.552Z" fill="#FAFAFA"/>
<path d="M276.858 202.491V206.491C276.858 207.321 277.438 207.651 278.158 207.241L291.808 199.361C292.184 199.113 292.496 198.78 292.72 198.389C292.944 197.999 293.074 197.561 293.098 197.111V193.111C293.098 192.281 292.508 191.951 291.798 192.361L278.148 200.241C277.772 200.489 277.459 200.821 277.235 201.212C277.011 201.603 276.882 202.041 276.858 202.491Z" fill="#FAFAFA"/>
<path d="M307.458 174.872L327.458 163.292C328.648 162.602 329.618 163.162 329.618 164.542V178.312C329.577 179.062 329.36 179.792 328.985 180.444C328.61 181.095 328.087 181.649 327.458 182.062L307.458 193.632C306.258 194.322 305.288 193.762 305.288 192.382V178.622C305.329 177.87 305.547 177.138 305.924 176.487C306.301 175.835 306.827 175.282 307.458 174.872Z" fill="#C4B5FD"/>
<path d="M310.648 176.791L324.298 168.961C325.018 168.541 325.598 168.731 325.598 169.381C325.547 169.78 325.402 170.162 325.176 170.495C324.95 170.828 324.65 171.104 324.298 171.301L310.648 179.181C309.938 179.601 309.348 179.411 309.348 178.761C309.395 178.353 309.537 177.963 309.763 177.62C309.989 177.278 310.292 176.994 310.648 176.791Z" fill="#FAFAFA"/>
<path d="M309.348 183.731V187.731C309.348 188.551 309.938 188.891 310.648 188.481L324.298 180.591C324.677 180.346 324.993 180.014 325.219 179.623C325.445 179.231 325.575 178.792 325.598 178.341V174.341C325.598 173.511 325.018 173.171 324.298 173.591L310.648 181.471C310.269 181.719 309.954 182.053 309.728 182.446C309.502 182.839 309.372 183.279 309.348 183.731Z" fill="#FAFAFA"/>
<path d="M244.628 243.961L325.328 197.371C327.728 195.991 329.658 196.971 329.658 199.561C329.554 201.016 329.107 202.426 328.355 203.675C327.602 204.925 326.565 205.979 325.328 206.751L244.628 253.341C242.238 254.721 240.298 253.741 240.298 251.151C240.405 249.697 240.853 248.289 241.605 247.04C242.357 245.791 243.393 244.736 244.628 243.961Z" fill="#E0E0E0"/>
<path d="M244.628 262.731L325.328 216.141C327.728 214.761 329.658 215.741 329.658 218.331C329.554 219.786 329.107 221.195 328.355 222.445C327.602 223.694 326.565 224.748 325.328 225.521L244.628 272.121C242.238 273.501 240.298 272.521 240.298 269.921C240.405 268.467 240.853 267.058 241.605 265.809C242.357 264.56 243.393 263.506 244.628 262.731Z" fill="#E0E0E0"/>
<path d="M270.898 271.021L299.059 254.761C300.259 254.071 301.229 254.631 301.229 256.011V265.081C301.188 265.833 300.97 266.565 300.593 267.216C300.216 267.868 299.69 268.421 299.059 268.831L270.898 285.091C269.698 285.781 268.729 285.221 268.729 283.841V274.771C268.769 274.019 268.987 273.288 269.364 272.636C269.741 271.985 270.267 271.431 270.898 271.021Z" fill="#C4B5FD"/>
<path d="M246.388 245.351C245.803 245.74 245.317 246.262 244.969 246.873C244.622 247.484 244.423 248.169 244.388 248.871C244.388 250.161 245.298 250.691 246.388 250.041C246.974 249.652 247.46 249.131 247.808 248.519C248.155 247.908 248.354 247.224 248.388 246.521C248.418 245.231 247.508 244.701 246.388 245.351Z" fill="#FAFAFA"/>
<path d="M252.828 241.632C252.242 242.019 251.755 242.54 251.407 243.152C251.06 243.764 250.861 244.449 250.828 245.152C250.828 246.442 251.728 246.972 252.828 246.322C253.414 245.932 253.9 245.411 254.248 244.8C254.595 244.188 254.794 243.504 254.828 242.802C254.858 241.512 253.948 240.962 252.828 241.632Z" fill="#FAFAFA"/>
<path d="M259.258 237.962C258.673 238.351 258.186 238.872 257.839 239.483C257.492 240.095 257.293 240.779 257.258 241.482C257.258 242.772 258.168 243.302 259.258 242.652C259.844 242.262 260.33 241.741 260.678 241.13C261.025 240.518 261.224 239.834 261.258 239.132C261.288 237.792 260.378 237.262 259.258 237.962Z" fill="#FAFAFA"/>
<path d="M265.698 234.191C265.112 234.58 264.626 235.101 264.278 235.712C263.931 236.324 263.732 237.009 263.698 237.711C263.698 239.001 264.608 239.531 265.698 238.881C266.284 238.492 266.77 237.971 267.118 237.359C267.465 236.748 267.664 236.063 267.698 235.361C267.728 234.071 266.818 233.541 265.698 234.191Z" fill="#FAFAFA"/>
<path d="M272.128 230.471C271.543 230.861 271.057 231.382 270.709 231.993C270.362 232.605 270.163 233.289 270.128 233.991C270.128 235.281 271.038 235.811 272.128 235.161C272.714 234.772 273.2 234.251 273.548 233.64C273.895 233.028 274.094 232.344 274.128 231.641C274.158 230.351 273.248 229.821 272.128 230.471Z" fill="#FAFAFA"/>
<path d="M278.558 226.751C277.973 227.14 277.486 227.661 277.139 228.272C276.792 228.884 276.593 229.568 276.558 230.271C276.558 231.561 277.468 232.091 278.558 231.441C279.145 231.053 279.632 230.532 279.98 229.92C280.327 229.308 280.525 228.623 280.558 227.921C280.588 226.631 279.688 226.101 278.558 226.751Z" fill="#FAFAFA"/>
<path d="M284.998 223.031C284.413 223.42 283.926 223.941 283.579 224.553C283.232 225.164 283.033 225.849 282.998 226.551C282.998 227.841 283.908 228.371 284.998 227.721C285.584 227.332 286.07 226.811 286.418 226.199C286.765 225.588 286.964 224.903 286.998 224.201C287.058 222.961 286.118 222.381 284.998 223.031Z" fill="#FAFAFA"/>
<path d="M246.388 264.131C245.804 264.521 245.319 265.043 244.971 265.654C244.624 266.265 244.424 266.949 244.388 267.651C244.388 268.951 245.298 269.471 246.388 268.821C246.974 268.434 247.46 267.914 247.808 267.305C248.155 266.695 248.354 266.012 248.388 265.311C248.418 264.011 247.508 263.491 246.388 264.131Z" fill="#FAFAFA"/>
<path d="M252.828 260.411C252.242 260.8 251.756 261.321 251.408 261.932C251.061 262.544 250.862 263.229 250.828 263.931C250.828 265.231 251.728 265.751 252.828 265.101C253.414 264.714 253.9 264.195 254.248 263.585C254.595 262.975 254.794 262.292 254.828 261.591C254.858 260.291 253.948 259.771 252.828 260.411Z" fill="#FAFAFA"/>
<path d="M259.258 256.691C258.674 257.081 258.188 257.603 257.841 258.214C257.494 258.825 257.294 259.509 257.258 260.211C257.258 261.511 258.168 262.031 259.258 261.381C259.844 260.994 260.33 260.474 260.677 259.865C261.025 259.255 261.224 258.572 261.258 257.871C261.288 256.571 260.378 256.041 259.258 256.691Z" fill="#FAFAFA"/>
<path d="M265.698 252.961C265.113 253.35 264.627 253.871 264.279 254.483C263.932 255.094 263.733 255.779 263.698 256.481C263.698 257.781 264.608 258.301 265.698 257.651C266.284 257.264 266.77 256.745 267.118 256.135C267.465 255.525 267.664 254.842 267.698 254.141C267.728 252.851 266.818 252.321 265.698 252.961Z" fill="#FAFAFA"/>
<path d="M272.128 249.251C271.543 249.641 271.057 250.162 270.709 250.773C270.362 251.385 270.163 252.069 270.128 252.771C270.128 254.071 271.038 254.591 272.128 253.941C272.714 253.554 273.2 253.035 273.548 252.425C273.895 251.815 274.094 251.132 274.128 250.431C274.158 249.131 273.248 248.601 272.128 249.251Z" fill="#FAFAFA"/>
<path d="M278.558 245.531C277.973 245.92 277.486 246.441 277.139 247.053C276.792 247.664 276.593 248.349 276.558 249.051C276.558 250.351 277.468 250.871 278.558 250.221C279.146 249.834 279.634 249.313 279.982 248.702C280.329 248.09 280.527 247.404 280.558 246.701C280.588 245.411 279.688 244.881 278.558 245.531Z" fill="#FAFAFA"/>
<path d="M284.998 241.811C284.413 242.2 283.926 242.722 283.579 243.333C283.232 243.944 283.033 244.629 282.998 245.331C282.998 246.631 283.908 247.151 284.998 246.501C285.585 246.113 286.071 245.592 286.419 244.98C286.766 244.369 286.965 243.684 286.998 242.981C287.058 241.691 286.118 241.161 284.998 241.811Z" fill="#FAFAFA"/>
<path d="M375.248 284.091C371.792 284.115 368.392 283.217 365.398 281.491C358.188 277.321 354.058 268.621 354.058 257.591C354.058 238.211 366.378 215.921 382.058 206.841C390.528 201.951 398.938 201.421 405.748 205.351C412.948 209.511 417.088 218.221 417.088 229.241C417.088 248.621 404.768 270.921 389.038 280.001C384.878 282.546 380.123 283.956 375.248 284.091ZM395.908 216.711C393.474 216.883 391.121 217.656 389.058 218.961C377.658 225.511 368.058 243.221 368.058 257.591C368.058 263.411 369.688 267.831 372.418 269.401C375.528 271.201 379.858 269.241 382.148 267.911C393.578 261.321 403.218 243.611 403.218 229.241C403.218 223.421 401.588 219.011 398.858 217.431C397.959 216.928 396.939 216.679 395.908 216.711Z" fill="#455A64"/>
<path d="M405.668 232.342C405.668 221.452 398.808 217.432 398.808 217.432C401.538 219.012 403.168 223.432 403.168 229.242C403.168 243.612 393.528 261.322 382.098 267.912C379.808 269.242 375.488 271.202 372.368 269.402C372.368 269.402 378.158 273.002 386.158 268.632C397.738 262.322 405.668 246.712 405.668 232.342Z" fill="#37474F"/>
<path d="M394.668 96.2511C394.599 94.3841 393.808 92.6167 392.463 91.3204C391.117 90.0241 389.322 89.2998 387.453 89.2998C385.585 89.2998 383.789 90.0241 382.444 91.3204C381.098 92.6167 380.308 94.3841 380.238 96.2511V210.961C380.29 211.604 380.513 212.221 380.884 212.749C381.255 213.277 381.761 213.695 382.348 213.961C383.93 214.76 385.677 215.176 387.448 215.176C389.22 215.176 390.967 214.76 392.548 213.961C393.138 213.697 393.647 213.28 394.02 212.752C394.393 212.224 394.617 211.605 394.668 210.961V96.2711V96.2511Z" fill="#37474F"/>
<path d="M388.908 121.891C388.829 120.445 388.411 119.037 387.686 117.783C386.962 116.528 385.952 115.462 384.738 114.671C384.31 114.357 383.804 114.167 383.275 114.121C382.746 114.075 382.214 114.176 381.738 114.411L363.958 124.661L363.528 124.911C363.463 124.938 363.402 124.975 363.348 125.021C363.045 125.226 362.761 125.457 362.498 125.711C361.496 126.711 360.886 128.038 360.78 129.45C360.675 130.862 361.08 132.264 361.923 133.402C362.766 134.54 363.99 135.336 365.372 135.646C366.753 135.956 368.2 135.759 369.448 135.091L369.788 134.891L387.698 124.581C388.12 124.28 388.454 123.872 388.666 123.399C388.879 122.927 388.963 122.406 388.908 121.891Z" fill="#455A64"/>
<path d="M388.908 150.611C388.828 149.166 388.408 147.761 387.684 146.508C386.959 145.256 385.95 144.191 384.738 143.401C384.312 143.084 383.806 142.89 383.276 142.843C382.747 142.795 382.214 142.895 381.738 143.131L360.878 155.131L360.448 155.381C360.384 155.409 360.323 155.446 360.268 155.491C359.963 155.693 359.679 155.924 359.418 156.181C358.767 156.83 358.276 157.621 357.983 158.492C357.691 159.364 357.605 160.291 357.733 161.201C357.861 162.111 358.199 162.979 358.721 163.736C359.243 164.493 359.933 165.118 360.738 165.561C361.607 166.022 362.575 166.262 363.558 166.261C364.539 166.266 365.505 166.025 366.368 165.561C366.488 165.501 366.598 165.421 366.708 165.361L387.708 153.361C388.138 153.053 388.476 152.635 388.687 152.151C388.898 151.667 388.975 151.135 388.908 150.611Z" fill="#455A64"/>
</svg>
